<?xml version="1.0" encoding="utf-8"?>
<!-- Generator: Adobe Illustrator 23.0.6, SVG Export Plug-In . SVG Version: 6.00 Build 0)  -->
<svg version="1.1" id="Capa_1" xmlns="http://www.w3.org/2000/svg" xmlns:xlink="http://www.w3.org/1999/xlink" x="0px" y="0px"
	 viewBox="0 0 50 50" style="enable-background:new 0 0 50 50;" xml:space="preserve">
<style type="text/css">
	.st0{fill:#78E29D;}
	.st1{fill:#211915;}
</style>
<rect class="st0" width="50" height="50"/>
<path class="st1" d="M35.21,25.91c-3.11-5.63-5.58-10.68-7.42-15.15c-0.81-1.97-1.89-2.95-3.22-2.95c-1.32,0-2.36,0.55-3.13,1.64
	c-0.77,1.1-1.52,2.01-2.24,2.73c-0.21,0.21-0.47,0.31-0.78,0.31c-0.36,0-0.62-0.12-0.8-0.36c-1.54-2.01-3.08-3.02-4.62-3.02
	c-0.92,0-1.94,0.45-3.07,1.36c-0.81,0.64-1.73,1.51-2.73,2.62c-0.7,0.81-1.4,1.63-2.11,2.44c-0.18,0.19-0.27,0.4-0.27,0.62
	c0,0.58,0.33,0.87,0.98,0.87c0.31,0,0.56-0.12,0.76-0.36c1.47-1.79,2.87-3.3,4.2-4.53c0.86-0.8,1.55-1.2,2.07-1.2
	c1.04,0,2.15,0.78,3.33,2.33c0.53,0.7,1.23,1.04,2.09,1.04c0.95,0,1.71-0.27,2.29-0.82c0.68-0.65,1.48-1.65,2.4-3
	c0.4-0.58,0.89-0.87,1.47-0.87c0.64,0,1.21,0.62,1.71,1.87c1.87,4.56,4.35,9.67,7.46,15.33c2.84,5.15,5.49,9.48,7.93,12.97
	c0.18,0.27,0.44,0.4,0.78,0.4c0.61,0,0.91-0.31,0.91-0.93c0-0.19-0.05-0.36-0.16-0.51C40.6,35.23,37.99,30.95,35.21,25.91
	L35.21,25.91z"/>
</svg>
